<svg clip-rule="evenodd" fill-rule="evenodd" stroke-linejoin="round" stroke-miterlimit="2" viewBox="0 0 560 400" xmlns="http://www.w3.org/2000/svg"><g fill="#00529c" fill-rule="nonzero" transform="matrix(.480084 0 0 .480084 -405.147 212.828)"><path d="m0 0c.797.797 1.738 1.823 2.823 3.078 1.083 1.256 2.109 2.739 3.079 4.451.969 1.712 1.797 3.62 2.48 5.731.686 2.109 1.029 4.363 1.029 6.758 0 4.675-.799 9.037-2.395 13.088-1.599 4.048-4.051 7.585-7.359 10.61-3.308 3.019-7.441 5.389-12.404 7.101-4.961 1.709-10.752 2.565-17.365 2.565h-43.631v-119.767h47.908c6.956 0 13.028.942 18.221 2.824 5.188 1.882 9.496 4.476 12.918 7.784 3.421 3.308 5.958 7.157 7.613 11.548 1.653 4.391 2.481 9.096 2.481 14.117 0 6.729-1.539 12.716-4.618 17.966-3.081 5.244-6.675 9.294-10.78 12.146m-21.183 31.436c1.613-.615 2.959-1.414 4.011-2.421 2.724-2.613 4.087-5.737 4.087-9.371 0-3.297-.569-6.021-1.703-8.178-1.137-2.16-2.274-3.807-3.408-4.941h-33.304v26.326h20.702c3.88 0 7.075-.479 9.615-1.415m-3.456-45.638c6.03 0 10.497-1.561 13.405-4.68 2.736-3.069 4.113-6.692 4.113-10.885 0-4.32-1.562-8.007-4.685-11.075-3.127-3.067-8.263-4.603-15.421-4.603h-24.273v31.243z" transform="matrix(1.9894386143 0 0 -1.9894386143 1510.360929 -40.13454225)"/><path d="m0 0c3.591 2.452 6.588 5.304 8.983 8.555s4.161 6.843 5.304 10.777c1.139 3.938 1.712 7.957 1.712 12.065 0 5.36-.888 10.292-2.653 14.799-1.772 4.504-4.423 8.382-7.957 11.634-3.538 3.251-7.957 5.788-13.261 7.613-5.303 1.823-11.435 2.739-18.391 2.739h-47.14v-119.767h22.674v44.484h12.643l31.269-44.484h26.577l-32.334 46.023c4.787 1.253 8.98 3.107 12.574 5.562m-26.093 47.65c1.426 0 2.772-.093 4.054-.255 4.042-.609 7.344-2.052 9.89-4.345 3.464-3.127 5.196-6.959 5.196-11.5 0-2.277-.372-4.49-1.109-6.648-.74-2.16-1.902-4.062-3.492-5.706-1.593-1.65-3.637-2.982-6.134-4.005-2.5-1.023-5.511-1.534-9.031-1.534h-24.01v33.993z" transform="matrix(1.9894386143 0 0 -1.9894386143 1702.6063705 -10.6914959)"/><path d="m0 0v-.034c-.23.006-.454.034-.683.034h-.193v-119.767h23.119v119.767z" transform="matrix(1.9894386143 0 0 -1.9894386143 1757.815607 -146.33478145)"/><path d="m1096.17 115.004c-5.55-.648-9.87-1.961-15.02-4.572-13.4-6.788-23.45-18.496-27.24-31.735-1.85-6.461-1.75-.243-1.67-102.205l.36-96.819c.46-6.416 1.44-10.597 4.02-17.226 4.65-11.936 12.26-20.312 23.5-25.855 6.31-3.117 12.35-4.685 19.73-5.128 2.56-.151 44.19-.176 98.55-.056 104.03.231 95.43.056 101.94 2.078 2.99.93 8.53 3.551 11.91 5.641 11.88 7.336 20.48 19.273 23.05 31.98.5 2.496.53 7.442.53 100.484l-.53 101.204c-1.68 10.694-6.66 20.009-15.36 28.736-6.81 6.834-13.09 10.598-21.44 12.839l-3.03.814-98.55.04c-54.19.023-99.53-.077-100.75-.218zm41.12-29.147c4.25-1.446 9.51-4.996 13.8-9.322 3.37-3.398 6.01-7.084 7.85-10.946 2.15-4.496 2.67-6.664 2.85-11.768.25-7.434-.82-13.631-3.26-18.756-2.93-6.159-6.77-10.696-24.35-28.726-18.96-19.438-24.41-25.249-28.51-30.366-1.24-1.535-1.57-2.16-1.43-2.673.63-2.422 7.11-9.077 23.62-24.277 17.39-15.998 22.86-21.72 28.85-30.15 3.73-5.254 6.4-11.39 7.35-16.892.59-3.379.59-9.727.01-13.137-1.25-7.32-5.12-14.627-10.22-19.286-7.25-6.619-14.37-9.671-24.54-10.524-4.36-.365-22.23-.142-26.65.333-9.89 1.064-19.07 8.003-21.4 16.17-.47 1.628-.51 6.632-.61 67.542l.16 96.671c.29 34.413.14 32.209 2.38 35.695 1.52 2.377 4.74 5.784 6.98 7.4 2.25 1.617 4.4 2.623 7.22 3.378 2.07.552 3.11.579 19.86.513l17.67-.068zm151 .447c-1.12-2.087-9.24-10.585-28.87-30.221-22.39-22.391-80.6-82.342-80.7-83.113-.27-2.024 10.07-12.936 23.21-24.519 7.49-6.598 18.29-17.053 24.86-24.065 13.07-13.94 16.39-18.831 17.57-25.855.58-3.42.52-11.285-.09-13.766-.69-2.75-1.83-5.56-3.28-8.063-1.58-2.74-7.45-8.706-10.63-10.807-4.47-2.961-9.94-5.305-15.02-6.44-2.47-.551-19.94-.903-25.65-.516l-3.56.241.25.956c.15.526 1.62 3.017 3.31 5.537 1.68 2.519 3.58 5.698 4.22 7.064 3.42 7.241 5 16.264 4.69 26.637-.25 8.416-1.46 13.364-5.06 20.72-5.02 10.228-11.76 18.147-26.66 31.315-8.69 7.679-15.68 14.67-18.92 18.941l-2.28 2.995 17.15 18.175 25.24 27.121c7.07 8.516 10.59 16.119 11.95 25.796.65 4.574.58 13.302-.14 17.484-1.09 6.42-3.46 12.027-7.86 18.603-1.39 2.076-2.86 4.343-3.26 5.037l-.73 1.263h50.26l49.99-.52zm19.88-103.13-1.2-99.344c-2.43-16.115-8.97-22.874-23.67-24.469-3.46-.376-21.56-.452-21.56-.091 0 .543 2.01 3.375 4.7 6.614 3.31 3.976 4.84 6.169 6.2 8.887 3.03 6.054 3.93 12.665 3.27 23.908-.6 10.26-1.8 14.745-5.61 20.932-5.39 8.765-12.47 16.302-31.55 33.595-11.27 10.209-18.77 18.123-18.49 19.508.03.24 19.84 20.525 43.98 45.077l43.89 44.64.1-1.391c.06-.766.01-35.806-.07-77.867z"/></g></svg>